<svg width="67" height="35" viewBox="0 0 67 35" fill="none" xmlns="http://www.w3.org/2000/svg">
<g clip-path="url(#clip0_389_178)">
<path d="M12.5743 9.28076C7.93404 11.0209 2.71371 13.341 2.13367 17.4013C1.55363 21.4616 9.09412 27.2619 29.9755 27.842M29.9755 27.842L24.1751 33.6423M29.9755 27.842L24.7551 22.0416" stroke="white" stroke-linecap="round"/>
<path d="M18.4285 12.8837C17.0685 12.8837 15.9295 12.5947 15.0115 12.0167V11.1667C15.9068 11.8127 17.0231 12.1357 18.3605 12.1357C19.3465 12.1357 20.2078 11.8524 20.9445 11.2857C21.6811 10.719 22.0495 9.95402 22.0495 8.99069C22.0495 8.09535 21.7208 7.37002 21.0635 6.81469C20.4061 6.24802 19.5448 5.96469 18.4795 5.96469C18.1055 5.96469 17.7088 6.01002 17.2895 6.10069V5.53969L21.3355 1.51069H15.5555V0.779687H22.4235V1.35769L18.4965 5.30169C19.6638 5.30169 20.6781 5.63035 21.5395 6.28769C22.4008 6.93369 22.8315 7.83469 22.8315 8.99069C22.8315 10.1354 22.4121 11.076 21.5735 11.8127C20.7461 12.5267 19.6978 12.8837 18.4285 12.8837ZM29.4684 12.8837C28.1197 12.8837 27.043 12.3964 26.2384 11.4217C25.445 10.4584 25.0484 9.09269 25.0484 7.32469C25.0484 5.37535 25.513 3.76602 26.4424 2.49669C27.383 1.21602 28.6127 0.575687 30.1314 0.575687C31.0834 0.575687 31.905 0.819354 32.5964 1.30669V2.07169C31.8597 1.57302 31.055 1.32369 30.1824 1.32369C29.219 1.32369 28.4087 1.61269 27.7514 2.19069C26.4707 3.27869 25.8304 4.99569 25.8304 7.34169C26.1364 6.70702 26.6237 6.18569 27.2924 5.77769C27.9724 5.36969 28.7317 5.16569 29.5704 5.16569C30.6357 5.16569 31.5424 5.52269 32.2904 6.23669C33.0497 6.92802 33.4294 7.82335 33.4294 8.92269C33.4294 10.0674 33.0497 11.0137 32.2904 11.7617C31.5424 12.5097 30.6017 12.8837 29.4684 12.8837ZM29.4514 12.1357C30.3354 12.1357 31.089 11.8354 31.7124 11.2347C32.3357 10.6227 32.6474 9.85769 32.6474 8.93969C32.6474 8.03302 32.3357 7.30202 31.7124 6.74669C31.089 6.19135 30.3184 5.91369 29.4004 5.91369C28.6184 5.91369 27.8987 6.16302 27.2414 6.66169C26.5954 7.16035 26.1477 7.78369 25.8984 8.53169C26.0344 9.67635 26.4027 10.566 27.0034 11.2007C27.604 11.824 28.42 12.1357 29.4514 12.1357ZM40.4452 12.8837C39.0398 12.8837 37.8895 12.3 36.9942 11.1327C36.1102 9.96535 35.6682 8.49769 35.6682 6.72969C35.6682 4.98435 36.1102 3.52235 36.9942 2.34369C37.9008 1.16502 39.0512 0.575687 40.4452 0.575687C41.8278 0.575687 42.9725 1.16502 43.8792 2.34369C44.7745 3.51102 45.2222 4.97302 45.2222 6.72969C45.2222 8.49769 44.7745 9.96535 43.8792 11.1327C42.9838 12.3 41.8392 12.8837 40.4452 12.8837ZM37.5722 10.6057C38.3428 11.6257 39.3005 12.1357 40.4452 12.1357C41.6012 12.1357 42.5532 11.6257 43.3012 10.6057C44.0605 9.57435 44.4402 8.28235 44.4402 6.72969C44.4402 5.16569 44.0605 3.87935 43.3012 2.87069C42.5532 1.83935 41.6012 1.32369 40.4452 1.32369C39.2892 1.32369 38.3315 1.83935 37.5722 2.87069C36.8242 3.89069 36.4502 5.17702 36.4502 6.72969C36.4502 8.27102 36.8242 9.56302 37.5722 10.6057Z" fill="white"/>
<path d="M54.5171 2.32015C54.5171 3.38062 53.6574 4.2403 52.5969 4.2403C51.5365 4.2403 50.6768 3.38062 50.6768 2.32015C50.6768 1.25968 51.5365 0.4 52.5969 0.4C53.6574 0.4 54.5171 1.25968 54.5171 2.32015Z" stroke="white" stroke-width="0.8"/>
<path d="M34.6158 27.8419C52.0169 28.422 65.9378 22.6216 64.7777 17.4012C63.6177 12.1809 56.0772 9.86076 52.5969 8.70068" stroke="white" stroke-width="1.2" stroke-linecap="round"/>
</g>
<defs>
<clipPath id="clip0_389_178">
<rect width="66.1243" height="34.8023" fill="white" transform="translate(0.393555)"/>
</clipPath>
</defs>
</svg>
