<svg width="44" height="44" viewBox="0 0 44 44" fill="none" xmlns="http://www.w3.org/2000/svg">
<g clip-path="url(#clip0_18_2)">
<path d="M30.2201 31.0574L24.9288 28.4117L39.3216 23.109L34.0188 37.5018L31.374 32.2113L25.8265 37.758C25.6673 37.9171 25.4584 37.9971 25.2495 37.9971C25.0406 37.9971 24.8317 37.9171 24.6726 37.758C24.3535 37.4389 24.3535 36.9232 24.6726 36.6041L30.2201 31.0574ZM36.5674 25.8632L29.0328 28.6394L32.2056 30.225L33.7912 33.397L36.5674 25.8632Z" fill="white"/>
<path d="M0.472689 33.3848C2.11133 30.2871 7.80167 26.9282 8.0522 26.7813C9.0943 26.188 10.1748 26.0028 11.0887 26.2541C11.7783 26.4451 12.3389 26.8809 12.7168 27.5158C13.5491 28.5113 14.5814 29.675 14.832 29.8554C16.766 31.1643 18.3018 31.0093 19.969 29.3421L29.3422 19.9681C31.0111 18.2992 31.1645 16.7626 29.8572 14.8335C29.6744 14.5805 28.5115 13.5482 27.5159 12.7158C26.881 12.3372 26.4452 11.7765 26.2543 11.087C26.0005 10.1705 26.1882 9.09252 26.7872 8.04226C26.9283 7.80071 30.2872 2.11036 33.385 0.472542C34.9583 -0.359833 36.8573 -0.0742141 38.1148 1.18414L40.1851 3.25365C45.1076 8.17691 45.2692 14.1912 40.6527 20.647C40.3908 21.0134 39.8816 21.0975 39.5135 20.8355C39.1471 20.5736 39.0622 20.0636 39.325 19.6963C43.5326 13.8142 43.4355 8.81343 39.0312 4.40755L36.9609 2.33804C36.2142 1.59135 35.0832 1.41916 34.1488 1.91451C31.4607 3.33689 28.2275 8.81261 28.2006 8.85913C27.8342 9.50136 27.6946 10.1713 27.8276 10.6512C27.9092 10.945 28.0912 11.1686 28.3858 11.3334L28.5082 11.4183C29.2043 11.9993 30.8609 13.4046 31.2077 13.917C31.7072 14.6547 32.0385 15.3802 32.2115 16.0926C32.7917 14.9355 33.2609 13.5947 33.4152 12.1095C33.4625 11.6623 33.8615 11.3367 34.312 11.3816C34.76 11.4289 35.0856 11.8296 35.0399 12.2784C34.4507 17.9524 30.0375 21.6459 29.8506 21.8001C29.8294 21.8173 29.8049 21.8238 29.7829 21.8385L21.1246 30.4968C21.0887 30.5327 21.0519 30.5645 21.0152 30.5996C20.9858 30.6421 20.9671 30.6902 20.9287 30.7277C20.7745 30.8803 17.09 34.4547 11.4633 35.039C11.4347 35.0414 11.4062 35.043 11.3784 35.043C10.9655 35.043 10.6113 34.7305 10.5673 34.3119C10.5208 33.863 10.8472 33.4623 11.2952 33.415C13.0212 33.2363 14.5496 32.7303 15.8243 32.1428C15.1992 31.9551 14.5635 31.6434 13.9196 31.2076C13.4071 30.8608 12.0019 29.2042 11.4209 28.5081L11.336 28.3849C11.1712 28.0919 10.9484 27.9091 10.6546 27.8275C10.1772 27.6928 9.50559 27.8332 8.8707 28.1947C7.33734 29.094 3.09875 31.9151 1.91711 34.1486C1.42339 35.083 1.59313 36.2124 2.34064 36.96L4.41097 39.0303C8.81276 43.4304 14.0331 43.4745 19.929 39.16C20.2938 38.8916 20.8039 38.9723 21.0691 39.3363C21.3351 39.7003 21.256 40.2103 20.8928 40.4763C17.6816 42.8266 14.5823 43.9992 11.6665 43.9992C8.63241 43.9992 5.79989 42.7262 3.25625 40.1834L1.18592 38.113C-0.0732504 36.8563 -0.359686 34.9557 0.472689 33.3848Z" fill="white"/>
</g>
<defs>
<clipPath id="clip0_18_2">
<rect width="44" height="44" fill="white" transform="matrix(-1 0 0 1 44 0)"/>
</clipPath>
</defs>
</svg>
