<svg width="63" height="35" viewBox="0 0 63 35" fill="none" xmlns="http://www.w3.org/2000/svg">
<g clip-path="url(#clip0_392_4)">
<path d="M33.507 9.20508C13.4145 9.20508 2.55365 22.2381 2.55365 22.2381C2.55365 22.2381 13.4145 33.642 33.507 33.642C53.5996 33.642 63.9174 22.2381 63.9174 22.2381C63.9174 22.2381 53.5996 9.20508 33.507 9.20508Z" stroke="white" stroke-width="1.2"/>
<path d="M9.81439 7.39508C9.81439 7.39508 19.1666 1.16016 32.8835 1.16016C46.6004 1.16016 57.1998 7.39508 57.1998 7.39508" stroke="white" stroke-width="1.2"/>
<path d="M44.3679 21.6949C44.3679 27.9931 39.2622 33.0988 32.964 33.0988C26.6658 33.0988 21.5601 27.9931 21.5601 21.6949C21.5601 15.3967 26.6658 10.291 32.964 10.291C39.2622 10.291 44.3679 15.3967 44.3679 21.6949ZM22.9692 21.6949C22.9692 27.2148 27.444 31.6896 32.964 31.6896C38.4839 31.6896 42.9587 27.2148 42.9587 21.6949C42.9587 16.1749 38.4839 11.7001 32.964 11.7001C27.444 11.7001 22.9692 16.1749 22.9692 21.6949Z" fill="white"/>
<path fill-rule="evenodd" clip-rule="evenodd" d="M38.4157 21.8588C37.9654 22.0723 37.462 22.1917 36.9306 22.1917C35.0137 22.1917 33.4598 20.6378 33.4598 18.721C33.4598 17.8362 33.7909 17.0287 34.336 16.4157C33.8976 16.3021 33.4379 16.2417 32.964 16.2417C29.9519 16.2417 27.51 18.6836 27.51 21.6957C27.51 24.7079 29.9519 27.1498 32.964 27.1498C35.9217 27.1498 38.3294 24.7956 38.4157 21.8588Z" fill="white"/>
</g>
<defs>
<clipPath id="clip0_392_4">
<rect width="66.1243" height="34.8023" fill="white" transform="translate(0.233521)"/>
</clipPath>
</defs>
</svg>
