<svg width="286" height="205" viewBox="0 0 286 205" fill="none" xmlns="http://www.w3.org/2000/svg">
<path fill-rule="evenodd" clip-rule="evenodd" d="M102.538 90.0985L98.6003 86.1787C97.4098 84.8322 95.6687 83.983 93.7301 83.983C90.1394 83.983 87.2291 86.8938 87.2291 90.484C87.2291 92.9758 88.631 95.1396 90.6889 96.2311L108.17 106.785C107.777 110.136 106.917 113.423 105.61 116.551C103.758 120.988 101.043 125.019 97.6196 128.415C94.196 131.809 90.132 134.501 85.66 136.336C81.1881 138.171 76.3952 139.114 71.5559 139.111C64.4676 139.111 57.5299 137.082 51.5747 133.267C45.6189 129.452 40.8983 124.013 37.979 117.602L40.6071 114.994L44.563 118.932C45.7536 120.279 47.4946 121.128 49.4338 121.128C53.0245 121.128 55.9348 118.217 55.9348 114.627C55.9348 112.136 54.5334 109.972 52.4761 108.881L35 98.3299C35.9541 90.1906 39.645 82.5587 45.5411 76.7073C52.4484 69.8516 61.8171 66 71.5851 66C78.6729 65.9947 85.6116 68.0179 91.569 71.828C97.5275 75.6376 102.252 81.0722 105.176 87.4795L102.538 90.0985Z" fill="#E42734"/>
<path d="M142.218 129.606L138.198 123.855H133.764V129.606H128.945V108.938H137.962C143.519 108.938 147.007 111.871 147.007 116.433C147.065 117.828 146.683 119.207 145.915 120.376C145.147 121.546 144.03 122.45 142.721 122.961L147.391 129.606H142.218ZM137.695 112.839H133.764V120.041H137.695C140.652 120.041 142.129 118.677 142.129 116.433C142.129 114.188 140.637 112.839 137.695 112.839Z" fill="#0C4B86"/>
<path d="M166.073 122.965H153.968C154.219 123.954 154.82 124.82 155.661 125.405C156.503 125.99 157.528 126.254 158.55 126.148C159.286 126.187 160.022 126.078 160.713 125.826C161.404 125.573 162.036 125.184 162.571 124.681L165.039 127.337C164.194 128.218 163.164 128.905 162.023 129.349C160.881 129.792 159.655 129.982 158.432 129.904C152.904 129.904 149.297 126.457 149.297 121.718C149.284 120.615 149.498 119.522 149.927 118.503C150.356 117.486 150.99 116.566 151.79 115.8C152.591 115.035 153.54 114.441 154.58 114.052C155.621 113.665 156.731 113.493 157.84 113.547C158.946 113.486 160.052 113.657 161.086 114.046C162.121 114.436 163.062 115.036 163.849 115.809C164.636 116.581 165.251 117.509 165.654 118.532C166.057 119.555 166.241 120.65 166.192 121.748C166.192 122.085 166.103 122.584 166.073 122.965ZM153.909 120.281H161.758C161.605 119.353 161.126 118.508 160.404 117.899C159.682 117.29 158.766 116.956 157.818 116.956C156.871 116.956 155.954 117.29 155.233 117.899C154.512 118.508 154.031 119.353 153.879 120.281H153.909Z" fill="#0C4B86"/>
<path d="M196.298 120.516V129.612H191.657V121.235C191.657 118.668 190.489 117.479 188.626 117.479C186.765 117.479 185.079 118.814 185.079 121.645V129.612H180.438V121.235C180.438 118.668 179.329 117.479 177.408 117.479C175.487 117.479 173.905 118.814 173.905 121.645V129.612H169.264V113.724H173.698V115.558C174.334 114.872 175.114 114.331 175.981 113.975C176.849 113.617 177.785 113.451 178.724 113.49C179.743 113.44 180.758 113.653 181.67 114.108C182.581 114.563 183.359 115.244 183.927 116.086C184.624 115.246 185.506 114.575 186.505 114.125C187.504 113.675 188.594 113.458 189.691 113.49C193.564 113.49 196.298 115.675 196.298 120.516Z" fill="#0C4B86"/>
<path d="M199.441 121.675C199.441 116.893 203.166 113.504 208.31 113.504C213.453 113.504 217.089 116.893 217.089 121.675C217.089 126.458 213.394 129.861 208.31 129.861C203.225 129.861 199.441 126.458 199.441 121.675ZM212.315 121.675C212.252 120.885 211.957 120.128 211.467 119.501C210.979 118.874 210.315 118.402 209.559 118.143C208.803 117.884 207.988 117.85 207.213 118.044C206.438 118.238 205.737 118.653 205.195 119.237C204.654 119.821 204.296 120.549 204.166 121.332C204.035 122.115 204.137 122.918 204.46 123.644C204.782 124.37 205.311 124.987 205.983 125.419C206.653 125.851 207.436 126.079 208.236 126.076C208.806 126.087 209.372 125.978 209.897 125.756C210.421 125.535 210.892 125.205 211.28 124.789C211.666 124.373 211.959 123.881 212.141 123.344C212.322 122.807 212.387 122.238 212.33 121.675H212.315Z" fill="#0C4B86"/>
<path d="M236.487 120.515V129.61H231.845V121.233C231.845 118.666 230.663 117.478 228.609 117.478C226.554 117.478 224.766 118.842 224.766 121.761V129.61H220.125V113.722H224.559V115.586C225.243 114.887 226.069 114.34 226.98 113.978C227.892 113.617 228.87 113.45 229.85 113.488C233.634 113.488 236.487 115.673 236.487 120.515Z" fill="#0C4B86"/>
<path d="M250.997 128.848C249.865 129.55 248.546 129.898 247.213 129.844C243.429 129.844 241.301 127.923 241.301 124.153V117.625H238.832V114.075H241.301V110.217H245.942V114.09H249.932V117.64H245.942V124.094C245.911 124.36 245.94 124.629 246.024 124.883C246.109 125.137 246.248 125.369 246.433 125.564C246.616 125.76 246.841 125.913 247.09 126.014C247.34 126.115 247.609 126.16 247.878 126.148C248.551 126.157 249.209 125.952 249.755 125.562L250.997 128.848Z" fill="#0C4B86"/>
<path d="M128.498 94.2871L130.138 90.6783C132.16 92.0658 134.554 92.8171 137.011 92.8352C139.864 92.8352 141.032 91.8959 141.032 90.6197C141.032 86.7468 128.927 89.402 128.927 81.7302C128.927 78.2092 131.779 75.2899 137.706 75.2899C140.238 75.2398 142.737 75.8734 144.934 77.1236L143.456 80.7617C141.692 79.7575 139.696 79.2219 137.662 79.2064C134.809 79.2064 133.7 80.2628 133.7 81.5689C133.7 85.3827 145.806 82.7567 145.806 90.3705C145.806 93.818 142.85 96.781 136.938 96.781C133.934 96.8199 130.99 95.9499 128.498 94.2871Z" fill="#0C4B86"/>
<path d="M175.831 87.2325V96.3275H171.189V88.0099C171.189 85.4425 170.022 84.2546 168.159 84.2546C166.297 84.2546 164.612 85.5894 164.612 88.4204V96.3861H159.986V88.0099C159.986 85.4425 158.877 84.2546 156.956 84.2546C155.034 84.2546 153.453 85.5894 153.453 88.4204V96.3861H148.797V80.4402H153.23V82.2739C153.868 81.5882 154.647 81.0478 155.514 80.6905C156.382 80.3332 157.318 80.1676 158.257 80.2054C159.286 80.1453 160.313 80.354 161.235 80.8092C162.158 81.2645 162.945 81.9513 163.519 82.8021C164.216 81.9619 165.098 81.2911 166.097 80.8412C167.097 80.3913 168.186 80.174 169.283 80.2054C173.097 80.2054 175.831 82.3911 175.831 87.2325Z" fill="#0C4B86"/>
<path d="M194.155 87.2593V96.3251H189.839V94.3444C189.302 95.1149 188.566 95.7277 187.707 96.1175C186.848 96.5072 185.9 96.66 184.962 96.5599C181.207 96.5599 179.049 94.4914 179.049 91.7483C179.049 89.0047 181.045 86.9953 185.922 86.9953H189.618C189.618 85.0146 188.435 83.8709 185.922 83.8709C184.267 83.8544 182.649 84.3688 181.311 85.3373L179.493 82.1395C181.55 80.8329 183.953 80.1636 186.395 80.2179C191.317 80.2035 194.155 82.4477 194.155 87.2593ZM189.514 91.308V89.6798H186.336C184.163 89.6798 183.483 90.4715 183.483 91.5428C183.483 92.6135 184.459 93.4643 186.1 93.4643C186.826 93.5133 187.549 93.3302 188.164 92.9425C188.777 92.5544 189.251 91.982 189.514 91.308Z" fill="#0C4B86"/>
<path d="M208.283 80.2028V84.3393C204.484 84.3393 202.991 85.8061 202.991 88.8282V96.3243H198.35V80.437H202.784V82.5348C203.443 81.7351 204.287 81.1058 205.245 80.699C206.202 80.2933 207.244 80.1229 208.283 80.2028Z" fill="#0C4B86"/>
<path d="M221.941 95.5601C220.81 96.2629 219.492 96.6106 218.158 96.5579C214.374 96.5579 212.245 94.6363 212.245 90.8662V84.338H209.777V80.7882H212.245V76.9297H216.886V80.8026H220.878V84.338H216.886V90.8076C216.848 91.0818 216.872 91.3613 216.957 91.6249C217.042 91.8884 217.186 92.1301 217.377 92.3314C217.568 92.5332 217.803 92.6892 218.064 92.7882C218.325 92.8878 218.604 92.9277 218.882 92.9054C219.555 92.9144 220.214 92.7089 220.759 92.3186L221.941 95.5601Z" fill="#0C4B86"/>
</svg>
