<svg width="130" height="99" viewBox="0 0 130 99" fill="none" xmlns="http://www.w3.org/2000/svg">
<g clip-path="url(#clip0_569_40)">
<path d="M41.0544 0V7.5716L55.16 4.17277L57.1107 12.3568L41.0544 16.2253V20.3789L55.4427 16.9125L57.3935 25.0957L41.0544 29.0323V33.1863L62.4003 28.043L64.2355 34.6043L88.9457 24.9107V0H41.0544Z" fill="#2B2A29"/>
<path fill-rule="evenodd" clip-rule="evenodd" d="M88.9457 24.9106L64.3236 34.4304L41.0545 40.0061V46.3982H88.9457V24.9106Z" fill="url(#paint0_linear_569_40)"/>
<path d="M16.3004 53.6416V57.5767V57.7204H6.875C5.96422 57.7204 5.29305 57.9145 4.86184 58.3023C4.7724 58.3824 4.69265 58.4719 4.62224 58.571C4.38397 58.951 4.26459 59.4448 4.26459 60.0526V63.8076H16.3004V63.9404V67.8768V68.0088H4.26459V71.6916C4.26459 72.3046 4.38409 72.8034 4.62272 73.1881C4.6952 73.2916 4.77785 73.385 4.87056 73.4684C5.30783 73.862 5.98822 74.0591 6.91112 74.0591H16.3004V74.2029V78.1394V78.2605H15.9268H5.97719C5.07853 78.2605 4.27501 78.1498 3.567 77.9283C2.84734 77.7033 2.22755 77.363 1.7086 76.9079C1.13777 76.4253 0.709229 75.8366 0.424059 75.1417C0.141191 74.4532 -0.00012207 73.6654 -0.00012207 72.7787V59.2175C-0.00012207 58.3497 0.124587 57.5689 0.373521 56.8754C0.625726 56.1727 1.00458 55.5649 1.50911 55.0537C2.01486 54.5403 2.61816 54.1551 3.31758 53.8989C4.00669 53.6466 4.78585 53.5202 5.65409 53.5202H16.3003V53.642L16.3004 53.6416ZM125.785 63.8484C125.736 63.7865 125.68 63.7301 125.62 63.6793C125.284 63.4 124.755 63.2603 124.033 63.2603H120.634C119.781 63.2603 119.153 63.4252 118.751 63.7547C118.372 64.0657 118.182 64.5483 118.182 65.2022V68.2275L126.058 64.9675V64.9122C126.058 64.4756 125.967 64.121 125.785 63.8487V63.8484ZM129.767 67.2968L118.182 72.0222V72.3108C118.182 72.746 118.239 73.1121 118.354 73.4081C118.46 73.6846 118.619 73.9041 118.829 74.0655L118.833 74.0686C118.969 74.1775 119.166 74.2617 119.423 74.321C119.706 74.3862 120.057 74.4189 120.474 74.4189H130V78.2601H119.904C119.032 78.2601 118.271 78.1718 117.62 77.9953C116.949 77.8134 116.394 77.5362 115.955 77.1639C115.403 76.7028 114.989 76.119 114.714 75.4127C114.66 75.2738 114.612 75.1301 114.569 74.9821L114.568 74.9815L114.567 74.9766L114.567 74.9753C114.395 74.392 114.308 73.7341 114.308 73.0018V64.4679C114.308 63.958 114.352 63.4878 114.44 63.0575C114.633 62.0953 115.039 61.3237 115.66 60.7427C116.552 59.9081 117.867 59.4907 119.605 59.4907H125.029C126.667 59.4907 127.907 59.9314 128.747 60.8127C129.582 61.6881 130 62.9792 130 64.6849V67.2017L129.767 67.2968H129.767ZM113.617 60.0064L106.684 76.7688C106.453 77.3283 106.134 77.7516 105.728 78.0387C105.316 78.3299 104.826 78.4756 104.256 78.4756C103.687 78.4756 103.196 78.3299 102.784 78.0387C102.379 77.7517 102.06 77.3288 101.829 76.7701L94.6449 59.4908H98.6497L104.222 72.9588L109.863 59.4908H113.83L113.617 60.0064H113.617ZM93.2358 78.2601H89.8091V59.4907H93.6093V78.2601H93.2358ZM94.0764 55.0804C94.0764 55.4046 94.0153 55.711 93.8934 55.9989C93.773 56.2841 93.5939 56.545 93.3567 56.7825L93.3554 56.784C93.1176 57.0217 92.8566 57.2011 92.5736 57.3215C92.2862 57.4437 91.9802 57.5048 91.6558 57.5048C91.3313 57.5048 91.0275 57.4456 90.7448 57.3272C90.4635 57.2096 90.2062 57.0339 89.9735 56.8011C89.741 56.5699 89.566 56.3119 89.448 56.0285C89.3298 55.7454 89.2708 55.4411 89.2708 55.1164C89.2708 54.7833 89.3274 54.4709 89.4407 54.1802C89.5537 53.8903 89.7226 53.6255 89.9474 53.3863C90.1747 53.1443 90.4321 52.9618 90.7192 52.8397C91.0065 52.7175 91.319 52.6562 91.6558 52.6562C91.9911 52.6562 92.3028 52.7151 92.5905 52.8326C92.8786 52.9501 93.1396 53.1259 93.3729 53.3592L93.3743 53.3607C93.6072 53.594 93.7831 53.8556 93.9004 54.1443C94.0176 54.4324 94.0764 54.7446 94.0764 55.0803V55.0804ZM87.4175 63.2603H79.2908C78.9482 63.2603 78.6526 63.2877 78.4052 63.3422C78.1765 63.3921 77.9927 63.4645 77.8534 63.5586C77.6519 63.6948 77.5032 63.8507 77.4077 64.026C77.3135 64.1988 77.2663 64.3994 77.2663 64.6278V65.3526C77.2663 65.8592 77.4234 66.2321 77.7372 66.4709C78.0824 66.7335 78.6272 66.8652 79.3711 66.8652H83.3945C84.028 66.8652 84.6099 66.9739 85.1391 67.1909C85.67 67.4087 86.1426 67.7348 86.556 68.1686C86.9662 68.5988 87.2748 69.0841 87.4818 69.6237C87.688 70.1612 87.7911 70.7455 87.7911 71.3757V73.6418C87.7911 74.2493 87.6873 74.827 87.4795 75.3741C87.2733 75.918 86.9645 76.4285 86.5537 76.9052C86.3095 77.1899 86.0549 77.4287 85.7913 77.6208C85.5237 77.8169 85.2443 77.9629 84.9546 78.0595L84.9428 78.064C84.7185 78.1304 84.4447 78.18 84.1221 78.2122C83.8041 78.2442 83.4457 78.26 83.0472 78.26H73.4663V74.4187H82.2161C82.5965 74.4187 82.907 74.3683 83.1469 74.268C83.3576 74.1797 83.5139 74.0507 83.6151 73.8815L83.6209 73.8728C83.7001 73.7485 83.7629 73.5541 83.8082 73.2907C83.8578 73.0018 83.883 72.6389 83.883 72.2026C83.883 71.6871 83.755 71.3103 83.4997 71.0729C83.2369 70.8285 82.8185 70.706 82.245 70.706H78.4377C77.7531 70.706 77.1244 70.6128 76.553 70.4263C75.9744 70.2375 75.4574 69.954 75.0023 69.5764C74.494 69.17 74.1109 68.6923 73.853 68.143C73.5956 67.5937 73.4664 66.9804 73.4664 66.3033V63.893C73.4664 63.1651 73.6139 62.5013 73.9085 61.9028C74.2019 61.3071 74.6399 60.7814 75.2223 60.3265C75.5876 60.0413 76.046 59.8293 76.5972 59.6909C77.1295 59.5573 77.7506 59.4903 78.461 59.4903H87.7912V63.2599H87.4177L87.4175 63.2603ZM71.4974 73.3537C71.4974 74.972 71.0533 76.1965 70.1653 77.0263C69.2856 77.8488 67.9882 78.2604 66.2745 78.2604H60.9942C59.281 78.2604 57.9839 77.849 57.1041 77.0263C56.2163 76.1965 55.7723 74.9721 55.7723 73.3537V59.4909H59.5724V72.4544C59.5724 72.7809 59.6213 73.073 59.7197 73.3298C59.8151 73.5793 59.9582 73.7986 60.1483 73.987L60.1499 73.9883C60.2831 74.1211 60.4918 74.2243 60.7754 74.2971C61.0912 74.3783 61.4951 74.4192 61.9869 74.4192H65.3183C66.9042 74.4192 67.6973 73.7763 67.6973 72.4908V59.4909H71.4975V73.3537H71.4974ZM53.0823 78.2603H49.6554V53.1237H53.4559V78.2603H53.0823ZM47.4649 78.2603H40.4599C38.6849 78.2603 37.3423 77.827 36.4317 76.9607C35.5157 76.0894 35.0578 74.8031 35.0578 73.1018V64.397C35.0578 62.7897 35.4455 61.5717 36.2197 60.7436C36.9998 59.908 38.1502 59.4908 39.6701 59.4908H47.7665V63.2605H40.9371C40.511 63.2605 40.1544 63.2984 39.869 63.3737C39.6106 63.4417 39.4139 63.5389 39.2794 63.6644C39.149 63.786 39.048 63.9681 38.9772 64.2091C38.8977 64.4793 38.8582 64.8204 38.8582 65.2317V72.3756C38.8582 73.0737 39.0348 73.5871 39.3875 73.9154C39.748 74.251 40.3128 74.4186 41.0815 74.4186H47.8381V78.2603H47.4646H47.4649ZM34.0918 78.2603H30.1978L26.0097 72.2446L21.822 78.2603H17.2554L23.8702 68.6049L17.6525 59.4909H22.182L25.9763 65.0027L29.8393 59.4909H34.3626L28.2207 68.6045L34.7977 78.2603H34.0918Z" fill="#2B2A29"/>
<path fill-rule="evenodd" clip-rule="evenodd" d="M34.5015 98.7816H32.0924L30.8219 95.4844H25.2985L24.0277 98.7816H21.3428L26.1964 86.352C26.3703 85.9134 26.6132 85.5827 26.9248 85.3594C27.2398 85.133 27.6185 85.0197 28.0602 85.0197C28.5019 85.0197 28.8808 85.1331 29.1958 85.3594C29.5071 85.583 29.7502 85.9136 29.9236 86.3504L34.7772 98.7816H34.5016H34.5015ZM29.9967 93.2826L27.9593 88.0723L26.114 93.2826H29.9966H29.9967ZM47.3717 98.7816H41.7189C41.084 98.7816 40.5194 98.7206 40.0269 98.5993C39.5281 98.4764 39.1021 98.2901 38.7495 98.0407C38.3874 97.7857 38.1162 97.434 37.9362 96.9872C37.7607 96.5519 37.6728 96.0278 37.6728 95.4163V85.1587H40.1783V94.976C40.1783 95.2921 40.2185 95.5581 40.2981 95.7726C40.3733 95.9745 40.4839 96.1311 40.6292 96.2411C40.7367 96.3223 40.916 96.3852 41.1666 96.4295C41.4334 96.4766 41.7787 96.5003 42.2013 96.5003H47.5618V98.7816H47.3718H47.3717ZM65.5442 98.7816H63.3162V89.0714L59.9364 97.5112C59.7434 97.9936 59.5075 98.3601 59.2294 98.6084C58.9372 98.8696 58.6027 99.0002 58.2262 99.0002C58.0036 99.0002 57.799 98.9599 57.6137 98.8798C57.4279 98.7996 57.2637 98.6794 57.1214 98.5207C57.0376 98.4298 56.9515 98.3027 56.8645 98.1408C56.781 97.9861 56.6935 97.7954 56.6033 97.5709L53.1358 89.0553V98.7816H50.7181V86.9748C50.7181 86.6957 50.7629 86.4389 50.8516 86.2047C50.9411 85.9685 51.0756 85.7576 51.253 85.5747C51.4341 85.3885 51.6496 85.2489 51.8989 85.1564C52.1438 85.0652 52.4203 85.0195 52.7268 85.0195C53.6755 85.0195 54.3263 85.4773 54.6787 86.3924L58.2057 95.3981L61.7962 86.3868C61.9784 85.9372 62.2306 85.5975 62.5521 85.3683C62.8775 85.1359 63.2692 85.0195 63.7256 85.0195C64.04 85.0195 64.3213 85.0672 64.5689 85.1619C64.8217 85.2587 65.0374 85.4045 65.214 85.5983C65.3875 85.7885 65.5185 86.0062 65.6054 86.2513C65.6913 86.4929 65.7344 86.7594 65.7344 87.0508V98.7815H65.5444L65.5442 98.7816ZM82.5771 98.7816H80.1679L78.8975 95.4844H73.3739L72.1031 98.7816H69.4184L74.272 86.352C74.4458 85.9134 74.6888 85.5827 75.0002 85.3594C75.3153 85.133 75.694 85.0197 76.1357 85.0197C76.5775 85.0197 76.9562 85.1331 77.2713 85.3594C77.5825 85.583 77.8258 85.9136 77.9992 86.3504L82.8528 98.7816H82.5772H82.5771ZM78.0722 93.2826L76.0348 88.0723L74.1895 93.2826H78.072H78.0722ZM95.4472 98.7816H89.7945C89.1596 98.7816 88.5951 98.7206 88.1025 98.5993C87.6036 98.4761 87.1775 98.2901 86.8251 98.0407C86.4629 97.7857 86.1917 97.434 86.0117 96.9872C85.8362 96.5519 85.7483 96.0278 85.7483 95.4163V85.1587H88.2536V94.976C88.2536 95.2919 88.2938 95.5581 88.3736 95.7726C88.4488 95.9745 88.5596 96.1316 88.7046 96.2411C88.8118 96.3223 88.9913 96.3852 89.2419 96.4295C89.5112 96.4761 89.8565 96.5003 90.2768 96.5003H95.6374V98.7816H95.4473H95.4472ZM108.479 85.4441L103.599 93.2643V98.7816H101.094V93.2635L96.0594 85.1587H98.9376L102.295 90.7259L105.78 85.1587H108.657L108.479 85.4441H108.479Z" fill="url(#paint1_linear_569_40)"/>
</g>
<defs>
<linearGradient id="paint0_linear_569_40" x1="51.8297" y1="31.9598" x2="85.2411" y2="45.0918" gradientUnits="userSpaceOnUse">
<stop stop-color="#BA823B"/>
<stop offset="0.109804" stop-color="#ECB147"/>
<stop offset="0.258824" stop-color="#FBC153"/>
<stop offset="0.380392" stop-color="#DEA137"/>
<stop offset="0.458824" stop-color="#E5AA3F"/>
<stop offset="0.768627" stop-color="#FCECB5"/>
<stop offset="1" stop-color="#BA823B"/>
</linearGradient>
<linearGradient id="paint1_linear_569_40" x1="52.9289" y1="74.5934" x2="86.7071" y2="111.592" gradientUnits="userSpaceOnUse">
<stop stop-color="#BA823B"/>
<stop offset="0.239216" stop-color="#ECB147"/>
<stop offset="0.290196" stop-color="#FBC153"/>
<stop offset="0.380392" stop-color="#DEA137"/>
<stop offset="0.639216" stop-color="#E5AA3F"/>
<stop offset="1" stop-color="#BA823B"/>
</linearGradient>
<clipPath id="clip0_569_40">
<rect width="130" height="99" fill="white"/>
</clipPath>
</defs>
</svg>
