<svg width="81" height="68" viewBox="0 0 81 68" fill="none" xmlns="http://www.w3.org/2000/svg">
<g clip-path="url(#clip0_176_68)">
<path d="M9.88431 51.311H3.65703C3.10273 51.311 2.60821 51.2409 2.17359 51.1007C1.73411 50.9591 1.35638 50.7454 1.04055 50.46L1.04067 50.4598C0.693173 50.1578 0.432642 49.7888 0.258954 49.3529C0.086318 48.9198 0 48.4224 0 47.8615V39.1134C0 38.5632 0.0762017 38.0692 0.228605 37.6315C0.382323 37.1905 0.61303 36.8091 0.920329 36.4878C1.22816 36.166 1.59498 35.9245 2.02106 35.7638C2.44267 35.6048 2.92076 35.525 3.45483 35.525H10.0339V38.0608H4.21868C3.62734 38.0608 3.18865 38.1936 2.90263 38.4587C2.62095 38.7196 2.48024 39.1192 2.48024 39.6564V42.1616H10.0339V44.6981H2.48024V47.1564C2.48024 47.7014 2.62279 48.1065 2.90802 48.3711C3.19784 48.64 3.64231 48.7747 4.24142 48.7747H10.0339V51.3111H9.88431V51.311ZM81.1021 44.2452L73.7988 47.3154V47.56C73.7988 47.8511 73.8366 48.0974 73.9123 48.2992C73.9849 48.4926 74.0929 48.6465 74.2366 48.7605L74.2384 48.7618C74.3337 48.8401 74.4679 48.9 74.6413 48.9412C74.8248 48.9848 75.0503 49.0066 75.3177 49.0066H81.1954V51.311H74.9609C74.4224 51.311 73.9532 51.2549 73.5533 51.1431C73.1449 51.0289 72.8081 50.8562 72.543 50.6247L72.5432 50.6245C72.2085 50.3367 71.9576 49.9716 71.7907 49.5295C71.6261 49.0932 71.5436 48.5834 71.5436 48.0007V42.5016C71.5436 41.4671 71.8162 40.6869 72.3615 40.1612C72.9036 39.6385 73.7076 39.377 74.7735 39.377H78.168C79.1695 39.377 79.925 39.6524 80.4341 40.2027C80.9413 40.7508 81.1954 41.5635 81.1954 42.6408V44.2059L81.1021 44.2454V44.2452ZM78.9178 42.8717V42.7876C78.9178 42.3996 78.8089 42.1122 78.5915 41.9254C78.3659 41.7318 78.017 41.6348 77.545 41.6348H75.4176C74.8636 41.6348 74.4531 41.7478 74.1859 41.9735C73.9277 42.1913 73.7987 42.5251 73.7987 42.9742V45.0556L78.9178 42.8715V42.8717ZM70.9482 39.5898L66.6092 50.4031C66.4708 50.7481 66.2811 51.0084 66.0402 51.184C65.797 51.3612 65.506 51.4498 65.1673 51.4498C64.8287 51.4498 64.5376 51.3612 64.2943 51.184C64.0534 51.0082 63.8638 50.7483 63.7253 50.4037L59.2778 39.377H61.6021L65.1453 48.2035L68.7323 39.377H71.0334L70.9479 39.5898H70.9482ZM58.7119 36.445C58.7119 36.6434 58.6759 36.8298 58.604 37.0046C58.5329 37.1773 58.4266 37.3369 58.2853 37.4827C58.1442 37.628 57.9899 37.7374 57.8224 37.8108C57.6533 37.885 57.4728 37.922 57.2811 37.922C57.0889 37.922 56.9094 37.8861 56.7427 37.8142C56.5768 37.7426 56.425 37.6359 56.2873 37.494L56.2868 37.4934C56.1495 37.3515 56.0459 37.1948 55.9768 37.0235C55.9073 36.8516 55.8725 36.6664 55.8725 36.4684C55.8725 36.2645 55.9058 36.0737 55.9727 35.8968C56.0399 35.7191 56.1397 35.5573 56.2727 35.4116C56.4068 35.2645 56.5586 35.1537 56.7276 35.0794C56.8966 35.0053 57.0813 34.9681 57.2811 34.9681C57.4802 34.9681 57.6646 35.004 57.8344 35.0754C58.0042 35.1468 58.1584 35.2537 58.2963 35.3958L58.2969 35.3964C58.4348 35.5392 58.5386 35.6985 58.6079 35.8742C58.6772 36.0493 58.7119 36.2397 58.7119 36.445ZM58.2701 51.311H56.2093V39.377H58.4199V51.311H58.2701H58.2701ZM54.6285 41.6348H49.5422C49.3213 41.6348 49.1303 41.6532 48.9693 41.6896C48.8158 41.7245 48.6911 41.7754 48.595 41.8418L48.5952 41.842C48.4581 41.9378 48.3562 42.0484 48.2897 42.1742C48.2237 42.2989 48.1907 42.442 48.1907 42.6035V43.0713C48.1907 43.4263 48.3002 43.6897 48.519 43.8612C48.7502 44.0427 49.1081 44.1335 49.5919 44.1335H52.1105C52.4963 44.1335 52.8496 44.2013 53.1702 44.3369C53.4915 44.4729 53.7776 44.6765 54.0282 44.9474C54.2776 45.217 54.465 45.5204 54.5903 45.8574C54.7157 46.1934 54.778 46.5599 54.778 46.9565V48.4185C54.778 48.8003 54.715 49.1625 54.5888 49.5053C54.463 49.8469 54.2747 50.1676 54.0241 50.4675C53.8741 50.6474 53.7197 50.7969 53.5611 50.9157C53.4002 51.0367 53.2331 51.1267 53.0603 51.1861L53.0557 51.1879C52.9201 51.2294 52.7541 51.2603 52.5577 51.2805C52.3632 51.3006 52.1418 51.3106 51.8934 51.3106H45.9808V49.0063H51.3733C51.6224 49.0063 51.8272 48.9716 51.9878 48.9023C52.1367 48.838 52.2477 48.7432 52.3207 48.6175L52.3231 48.6139C52.379 48.5234 52.4222 48.3875 52.4526 48.206C52.4846 48.0145 52.5006 47.7759 52.5006 47.4902C52.5006 47.1324 52.4115 46.8683 52.2338 46.698C52.053 46.5245 51.7721 46.4377 51.3913 46.4377H49.0084C48.5883 46.4377 48.2038 46.3791 47.8547 46.2618C47.503 46.1436 47.1888 45.9661 46.9119 45.7293C46.6032 45.4751 46.3708 45.1769 46.2149 44.8346C46.0591 44.4923 45.981 44.109 45.981 43.6847V42.1295C45.981 41.6732 46.0704 41.2579 46.249 40.884C46.4272 40.5114 46.6933 40.1826 47.0476 39.8973C47.2665 39.7211 47.543 39.5896 47.8769 39.5031C48.2033 39.4187 48.5852 39.3766 49.0232 39.3766H54.7784V41.6346H54.6289L54.6285 41.6348ZM44.5803 48.2326C44.5803 49.2516 44.3114 50.0202 43.7737 50.5383C43.2391 51.0535 42.4464 51.311 41.3956 51.311H38.0909C37.0402 51.311 36.2476 51.0535 35.713 50.5383C35.1753 50.0203 34.9065 49.2517 34.9065 48.2326V39.3766H37.1167V47.6526C37.1167 47.8737 37.1493 48.0723 37.2144 48.248C37.2787 48.4206 37.3746 48.5723 37.5026 48.7028L37.5031 48.7033C37.5974 48.8001 37.7407 48.8738 37.9334 48.9249C38.1386 48.9794 38.3982 49.0066 38.7119 49.0066H40.7972C41.3355 49.0066 41.7341 48.8948 41.9932 48.6715C42.2445 48.4548 42.3702 48.1228 42.3702 47.6756V39.3766H44.5803V48.2326ZM33.1388 51.311H31.078V35.2694H33.2885V51.311H33.139H33.1388ZM29.623 51.311H25.2389C24.1502 51.311 23.3291 51.0396 22.7755 50.4967C22.2198 49.9518 21.942 49.1431 21.942 48.0704V42.4549C21.942 41.4405 22.1767 40.6745 22.646 40.1572C23.118 39.637 23.8175 39.3768 24.7444 39.3768H29.7274V41.6348H25.5375C25.2636 41.6348 25.0334 41.6601 24.8474 41.711C24.6723 41.7586 24.5372 41.828 24.4429 41.9186C24.3498 42.0082 24.2792 42.1384 24.2305 42.3094C24.1783 42.4922 24.1522 42.7203 24.1522 42.9935V47.6016C24.1522 48.0768 24.2717 48.4292 24.5106 48.6582C24.7524 48.8903 25.1249 49.0063 25.628 49.0063H29.7727V51.311H29.6231L29.623 51.311ZM21.2532 51.311H18.8599L16.1947 47.3652L13.53 51.311H10.8755L14.9575 45.1692L11.1234 39.3768H13.7552L16.1734 42.9974L18.635 39.3768H21.2647L17.4771 45.1691L21.536 51.311H21.2532Z" fill="#FEFEFE"/>
<path d="M12.322 60.6943C12.322 61.0808 12.3793 61.4333 12.4939 61.7519C12.6082 62.0697 12.7801 62.3569 13.0098 62.6133C13.2383 62.8686 13.4937 63.0594 13.7758 63.1857C14.0581 63.3123 14.3704 63.3752 14.7126 63.3752C14.9598 63.3752 15.1879 63.3423 15.3967 63.2764C15.5427 63.2302 15.6804 63.1678 15.81 63.0895L14.9818 62.2889L15.9922 61.1318L16.8045 61.9706C16.8884 61.8087 16.9547 61.639 17.0036 61.462C17.0703 61.2203 17.1035 60.9644 17.1035 60.6943C17.1035 60.3204 17.0462 59.9791 16.9317 59.6701C16.8175 59.3624 16.6463 59.0855 16.4183 58.8396C16.19 58.5935 15.9345 58.4092 15.6514 58.2868C15.3679 58.1639 15.0551 58.1026 14.7126 58.1026C14.3707 58.1026 14.0581 58.1642 13.7746 58.2868C13.491 58.4096 13.2352 58.594 13.0073 58.8396C12.7791 59.0855 12.6081 59.3624 12.4939 59.6701C12.3791 59.9791 12.322 60.3206 12.322 60.6943ZM65.1347 63.6802L65.9993 62.4435L66.1299 62.5627C66.2505 62.6729 66.3828 62.7757 66.5271 62.8714C66.6703 62.9664 66.8247 63.0534 66.9902 63.1323C67.1527 63.2102 67.3138 63.2684 67.4732 63.3071C67.6306 63.3455 67.7872 63.3646 67.9426 63.3646C68.1027 63.3646 68.2439 63.3458 68.3666 63.3083C68.4844 63.2723 68.5861 63.2187 68.6715 63.1477C68.7549 63.0787 68.8167 63.0009 68.857 62.9139C68.8973 62.8273 68.9172 62.7285 68.9172 62.6171C68.9172 62.5054 68.8925 62.4017 68.8431 62.3057C68.7912 62.205 68.7125 62.1116 68.6073 62.0254H68.6066C68.489 61.9288 68.3591 61.8389 68.217 61.7553C68.0727 61.6705 67.9157 61.5921 67.7464 61.52C67.5638 61.442 67.3852 61.3625 67.2117 61.2817C67.0407 61.2021 66.8618 61.1152 66.6749 61.0205C66.4846 60.9242 66.3099 60.809 66.1511 60.6747C65.992 60.5401 65.8465 60.3851 65.715 60.2094C65.5804 60.0296 65.4792 59.832 65.4116 59.6171C65.3445 59.4031 65.3109 59.1739 65.3109 58.9291C65.3109 58.5608 65.3781 58.2261 65.5125 57.9247C65.6467 57.6238 65.8477 57.3583 66.1152 57.1283C66.3798 56.9014 66.6789 56.7311 67.0126 56.618C67.3438 56.5056 67.7082 56.4496 68.1056 56.4496C68.5775 56.4496 69.0115 56.5242 69.4072 56.6734C69.8043 56.8229 70.1612 57.0476 70.4783 57.3473L70.5699 57.4337L69.7949 58.9078L69.6456 58.7693C69.5432 58.6744 69.4307 58.5882 69.3081 58.5105C69.1828 58.4313 69.0474 58.3608 68.9015 58.2989C68.7564 58.2371 68.6125 58.1908 68.4704 58.1601C68.3308 58.1299 68.1913 58.1146 68.052 58.1146C67.8875 58.1146 67.7413 58.1331 67.6137 58.1698V58.1702C67.4902 58.2058 67.3829 58.259 67.2912 58.3294H67.2907C67.2036 58.3963 67.139 58.4735 67.0967 58.5607C67.0547 58.6475 67.0336 58.7478 67.0336 58.8618C67.0336 58.9694 67.0579 59.0686 67.1066 59.1601C67.1577 59.2563 67.2361 59.3461 67.3417 59.4296C67.4595 59.5228 67.5893 59.609 67.7311 59.6889C67.8738 59.7694 68.0308 59.844 68.2019 59.9133C68.3774 59.9843 68.5561 60.0604 68.7376 60.1421C68.913 60.221 69.0924 60.3057 69.2747 60.3961C69.4643 60.4901 69.6393 60.604 69.7991 60.7384C69.9593 60.8729 70.1051 61.0275 70.2358 61.2024C70.3704 61.3822 70.4717 61.5821 70.5393 61.8015C70.6064 62.0193 70.6399 62.2539 70.6399 62.5049C70.6399 62.8642 70.5786 63.1944 70.4559 63.4959C70.3331 63.7973 70.149 64.0688 69.904 64.31C69.6591 64.5507 69.3685 64.7312 69.0321 64.8517C68.7001 64.9704 68.3262 65.0298 67.9102 65.0298C67.6547 65.0298 67.4017 65.0052 67.1511 64.9562C66.9014 64.9072 66.6558 64.8341 66.4146 64.737L66.4148 64.7368C66.1722 64.6392 65.9457 64.5201 65.7353 64.3791C65.5243 64.2379 65.3296 64.0748 65.1511 63.8906L65.0565 63.7926L65.135 63.6804L65.1347 63.6802ZM58.742 64.7309V61.4346L56.045 56.5839H58.0038L59.2576 59.0209L59.593 59.7842C59.6274 59.7023 59.6617 59.6225 59.6957 59.5449C59.772 59.3716 59.8518 59.1982 59.9359 59.0249L59.9371 59.0216L61.1798 56.5839H63.1389L60.4532 61.4346V64.8943H58.742V64.7309ZM49.939 64.7309V56.5839H51.6611V63.3196H55.0056V64.8943H49.939V64.7309ZM42.8256 64.7309V61.4346L40.1284 56.5839H42.0875L43.3412 59.0209L43.6765 59.7842C43.7111 59.7023 43.7453 59.6225 43.7793 59.5449C43.8554 59.3716 43.9354 59.1982 44.0193 59.0249L44.0206 59.0216L45.2635 56.5839H47.2222L44.5367 61.4346V64.8943H42.8256V64.7309ZM33.98 60.3284H35.0855C35.2564 60.3284 35.407 60.3035 35.5368 60.2536C35.6638 60.2049 35.7734 60.1318 35.8664 60.0346C35.959 59.9371 36.0286 59.8223 36.0753 59.69C36.1232 59.5541 36.1473 59.3979 36.1473 59.2211C36.1473 58.9722 36.1037 58.7695 36.0163 58.6135C35.9327 58.4641 35.8059 58.3532 35.6355 58.2811L35.6312 58.2792C35.5471 58.2405 35.4412 58.2111 35.3125 58.1908C35.1792 58.1696 35.0234 58.159 34.8458 58.159H33.98V60.3282V60.3284ZM32.2581 64.7308V56.5838H34.9656C35.298 56.5838 35.5901 56.6024 35.8421 56.6392C36.1005 56.677 36.3157 56.7344 36.488 56.8108V56.8113C36.7048 56.9036 36.8992 57.0232 37.0709 57.1703L37.0711 57.17C37.2435 57.3173 37.3921 57.4921 37.5172 57.6938V57.6945C37.6424 57.8965 37.7362 58.1192 37.7983 58.362C37.8603 58.6033 37.8911 58.8636 37.8911 59.1428C37.8911 59.4002 37.8603 59.647 37.7983 59.8831C37.7365 60.1193 37.6436 60.3446 37.5197 60.5588C37.3947 60.7742 37.2469 60.9584 37.0763 61.1114C36.951 61.2237 36.8136 61.3187 36.6643 61.3967L36.6825 61.4264C36.7254 61.4978 36.7732 61.5837 36.8253 61.684L38.5458 64.8943H36.6032L35.0778 61.9149H33.9802V64.8943H32.2582V64.7309L32.2581 64.7308ZM22.0607 61.8635V56.5838H23.7829V61.8523C23.7829 62.0997 23.8177 62.3169 23.8876 62.504C23.9556 62.6868 24.0583 62.8439 24.1954 62.9751C24.3337 63.1081 24.4963 63.2077 24.6824 63.2741C24.8723 63.3419 25.0898 63.3757 25.3352 63.3757C25.5803 63.3757 25.7979 63.3419 25.9879 63.2741C26.1741 63.2077 26.3366 63.1081 26.4751 62.9751C26.6118 62.8439 26.7143 62.6867 26.7825 62.5039C26.8522 62.3169 26.8871 62.0995 26.8871 61.8523V56.5838H28.6097V61.8635C28.6097 62.3304 28.5344 62.7547 28.3841 63.136C28.233 63.5197 28.0062 63.8583 27.7044 64.1523C27.4036 64.4448 27.0553 64.6644 26.6592 64.8109C26.2659 64.9564 25.8282 65.0293 25.3462 65.0293C24.8602 65.0293 24.4195 64.9566 24.0245 64.8117C23.6261 64.6653 23.2753 64.4455 22.9724 64.1523L22.9727 64.1521C22.6685 63.8581 22.4406 63.5197 22.2887 63.1369C22.137 62.7545 22.0612 62.33 22.0612 61.8635H22.0607ZM10.5559 60.6942C10.5559 60.0968 10.6545 59.5457 10.8511 59.0412C11.0479 58.5362 11.3428 58.08 11.7355 57.6724C12.1286 57.265 12.5742 56.9591 13.0724 56.7545C13.5696 56.5508 14.1164 56.4487 14.7126 56.4487C15.3134 56.4487 15.8623 56.5499 16.3596 56.7526C16.8586 56.9559 17.304 57.2604 17.6955 57.6667C18.0863 58.072 18.3794 58.5279 18.5756 59.0344C18.7713 59.54 18.8692 60.0933 18.8692 60.6942C18.8692 61.1758 18.7953 61.6369 18.6475 62.077C18.5153 62.4711 18.3241 62.8462 18.0741 63.2026L18.9565 64.0216L17.9329 65.1931L17.0604 64.2926C16.7402 64.5244 16.3961 64.7018 16.0278 64.8242C15.6173 64.9611 15.1788 65.0293 14.7127 65.0293C14.1151 65.0293 13.5679 64.925 13.071 64.7165C12.5733 64.5074 12.1278 64.194 11.7345 63.7764C11.3419 63.3594 11.0472 62.8932 10.8506 62.378C10.6544 61.8637 10.5561 61.3023 10.5561 60.694L10.5559 60.6942Z" fill="#7CB935"/>
<path d="M26.7372 2.6842V7.1841L34.9019 5.16413L36.031 10.0278L26.7372 12.3271V14.7955L35.0655 12.7353L36.1948 17.5988L26.7372 19.9384V22.407L39.0929 19.3502L40.2142 24.1803L54.4581 18.5256V2.6842H26.7372Z" fill="#FEFEFE"/>
<path d="M54.4581 18.5258L40.2063 24.1833L26.7374 27.4969V31.2959H54.4581V18.5258Z" fill="#7CB935"/>
</g>
<defs>
<clipPath id="clip0_176_68">
<rect width="81" height="68" fill="white"/>
</clipPath>
</defs>
</svg>
