<svg width="139" height="99" viewBox="0 0 139 99" fill="none" xmlns="http://www.w3.org/2000/svg">
<g clip-path="url(#clip0_569_47)">
<path d="M29.4165 93.7736C29.4165 92.2793 29.9217 91.024 30.9321 90.0142C31.9425 88.9976 33.219 88.4927 34.7619 88.4927C36.3184 88.4927 37.595 88.9976 38.5986 90.0074C39.6021 91.0172 40.1072 92.2725 40.1072 93.7736C40.1072 94.9743 39.7318 96.0661 38.974 97.0485L40.1413 98.0993L39.0627 99.2933L37.9295 98.1606C37.0284 98.843 35.9702 99.1773 34.7688 99.1773C33.2259 99.1773 31.9493 98.6587 30.9389 97.6217C29.9217 96.5778 29.4165 95.2951 29.4165 93.7736ZM31.3553 93.7736C31.3553 94.8243 31.6831 95.6976 32.3315 96.4004C32.9801 97.1031 33.7925 97.4579 34.7619 97.4579C35.4582 97.4579 36.0658 97.2737 36.571 96.9052L35.4172 95.8272L36.4823 94.6469L37.6019 95.7658C37.9773 95.1722 38.1684 94.5104 38.1684 93.7736C38.1684 92.757 37.8408 91.9041 37.1922 91.2287C36.5437 90.5463 35.7313 90.2121 34.7619 90.2121C33.7925 90.2121 32.9801 90.5531 32.3315 91.2287C31.6831 91.9041 31.3553 92.757 31.3553 93.7736ZM44.7972 95.2883V88.6632H46.6746V95.2677C46.6746 95.9569 46.8794 96.4958 47.2959 96.878C47.7054 97.2601 48.2653 97.4511 48.9616 97.4511C49.6579 97.4511 50.2177 97.2601 50.6273 96.878C51.037 96.4958 51.2486 95.9569 51.2486 95.2677V88.6632H53.1259V95.2883C53.1259 96.4413 52.7436 97.3761 51.9859 98.0993C51.2213 98.8157 50.2246 99.1773 48.9821 99.1773C47.7327 99.1773 46.7224 98.8157 45.9509 98.0993C45.1796 97.3761 44.7972 96.4413 44.7972 95.2883ZM58.4234 98.9999V88.67H61.8301C62.7039 88.67 63.3525 88.7655 63.7825 88.9498C64.3287 89.1749 64.7519 89.5297 65.0659 90.0142C65.38 90.4985 65.5302 91.0854 65.5302 91.7744C65.5302 92.4022 65.3732 92.9821 65.0659 93.5006C64.7587 94.0192 64.3354 94.3876 63.7962 94.5991V94.6265C63.8849 94.7356 63.9941 94.9129 64.1306 95.1654L66.2539 99.0067H64.1443L62.1031 95.1518H60.294V99.0067H58.4234V98.9999ZM60.3076 93.5143H61.9939C62.4991 93.5143 62.895 93.3642 63.1885 93.0708C63.4822 92.7774 63.6255 92.3748 63.6255 91.8699C63.6255 91.1536 63.3525 90.6828 62.8131 90.4577C62.5537 90.3416 62.1714 90.2802 61.6799 90.2802H60.3076V93.5143ZM72.5481 98.9999V94.6742L69.0937 88.6632H71.2169L72.8348 91.7062L73.4629 93.0912H73.4902C73.695 92.5933 73.8997 92.1361 74.1183 91.7062L75.7225 88.6632H77.8457L74.4118 94.6742V98.9999H72.5481ZM82.0578 98.9999V88.67H83.9352V97.3897H88.4067V99.0067H82.0578V98.9999ZM93.8271 98.9999V94.6742L90.3728 88.6632H92.4959L94.1139 91.7062L94.7419 93.0912H94.7692C94.9741 92.5933 95.1789 92.1361 95.3973 91.7062L97.0017 88.6632H99.1248L95.6908 94.6742V98.9999H93.8271ZM102.333 97.7649L103.35 96.3527C103.692 96.6529 104.088 96.9121 104.552 97.1236C105.016 97.3351 105.467 97.4443 105.911 97.4443C106.375 97.4443 106.743 97.3351 107.016 97.1168C107.29 96.8984 107.426 96.6119 107.426 96.2639C107.426 95.9023 107.262 95.5953 106.928 95.336C106.6 95.0767 106.197 94.8448 105.726 94.6537C105.255 94.4626 104.784 94.2443 104.306 94.0123C103.828 93.7804 103.426 93.4528 103.098 93.023C102.77 92.5933 102.6 92.0884 102.6 91.4947C102.6 90.6009 102.934 89.8777 103.596 89.325C104.258 88.7724 105.105 88.4927 106.122 88.4927C107.337 88.4927 108.348 88.8611 109.153 89.598L108.32 91.1263C108.027 90.8671 107.679 90.6486 107.262 90.4781C106.853 90.3076 106.443 90.2257 106.047 90.2257C105.569 90.2257 105.187 90.3348 104.907 90.5463C104.62 90.7578 104.477 91.0444 104.477 91.406C104.477 91.754 104.641 92.0542 104.975 92.3067C105.303 92.5591 105.706 92.7774 106.177 92.9617C106.648 93.1458 107.119 93.3505 107.597 93.5825C108.075 93.8145 108.477 94.1352 108.805 94.565C109.133 94.9949 109.303 95.5134 109.303 96.1206C109.303 96.9939 108.996 97.7241 108.389 98.3039C107.774 98.8838 106.935 99.1773 105.87 99.1773C105.207 99.1773 104.566 99.0545 103.944 98.8156C103.323 98.57 102.784 98.2152 102.333 97.7649Z" fill="#71BF44"/>
<path d="M16.7255 83.0754H6.02805C4.17117 83.0754 2.7307 82.625 1.69987 81.7245C0.566622 80.7693 0 79.3979 0 77.5966V63.0366C0 61.2627 0.505182 59.8639 1.50872 58.8473C2.51225 57.8307 3.90492 57.319 5.67988 57.319H16.7255V61.0238H6.99062C4.82653 61.0238 3.7479 61.9927 3.7479 63.9372V68.3653H16.7255V72.07H3.7479V76.4162C3.7479 78.3813 4.84019 79.3637 7.03158 79.3637H16.7255V83.0754ZM36.2639 83.0754H32.2839L27.5666 76.3207L22.8561 83.0754H18.917L25.7574 73.114L19.3402 63.7325H23.2451L27.5324 69.9482L31.8947 63.7325H35.7996L29.4644 73.114L36.2639 83.0754ZM50.641 83.0754H43.1111C39.5065 83.0754 37.7042 81.3629 37.7042 77.9378V68.5972C37.7042 65.3563 39.2267 63.7325 42.2646 63.7325H50.5728V66.9734H43.6232C42.64 66.9734 41.9574 67.1508 41.5682 67.5124C41.1791 67.874 40.988 68.529 40.988 69.4911V77.16C40.988 78.893 41.9164 79.7527 43.7802 79.7527H50.6479V83.0754H50.641ZM56.6827 83.0754H53.3991V56.9029H56.6827V83.0754ZM76.0844 78.2106C76.0844 81.4515 74.3437 83.0754 70.8688 83.0754H65.1957C61.7208 83.0754 59.9801 81.4515 59.9801 78.2106V63.7325H63.2637V77.2418C63.2637 78.0401 63.5095 78.6815 64.0011 79.1727C64.3901 79.5616 65.1411 79.7527 66.2607 79.7527H69.8448C71.8177 79.7527 72.8076 78.9271 72.8076 77.2827V63.7325H76.0912V78.2106H76.0844ZM93.6088 66.9802H84.8706C84.0786 66.9802 83.4846 67.1099 83.1024 67.3691C82.563 67.7307 82.2968 68.2288 82.2968 68.8497V69.6274C82.2968 70.9784 83.1843 71.6539 84.9593 71.6539H89.2874C90.5503 71.6539 91.5881 72.077 92.3936 72.9297C93.206 73.7758 93.6088 74.8334 93.6088 76.0956V78.5246C93.6088 79.7321 93.1991 80.817 92.3731 81.7653C91.8884 82.3317 91.3695 82.707 90.8303 82.8844C90.3933 83.014 89.7517 83.0754 88.9052 83.0754H79.0062V79.7527H88.0177C88.9393 79.7527 89.5536 79.4934 89.8677 78.9817C90.0998 78.6201 90.2158 77.9514 90.2158 76.9757C90.2158 75.6385 89.4922 74.9699 88.0518 74.9699H83.9557C82.563 74.9699 81.4161 74.5945 80.515 73.8509C79.5115 73.0526 79.0062 71.9882 79.0062 70.6441V68.0583C79.0062 66.6186 79.5866 65.4451 80.7403 64.5444C81.4366 64.0055 82.5152 63.7325 83.9762 63.7325H93.6088V66.9802ZM99.8689 83.0754H96.5853V63.7325H99.8689V83.0754ZM100.367 58.6017C100.367 59.1953 100.149 59.707 99.7119 60.1437C99.275 60.5803 98.7561 60.7987 98.169 60.7987C97.5751 60.7987 97.0699 60.5871 96.6399 60.1642C96.2166 59.7412 96.0049 59.2295 96.0049 58.6427C96.0049 58.0218 96.2097 57.4964 96.6262 57.0598C97.0358 56.6231 97.5547 56.4048 98.169 56.4048C98.7903 56.4048 99.3092 56.6162 99.7324 57.0392C100.156 57.4623 100.367 57.9808 100.367 58.6017ZM121.414 63.7325L113.959 81.7245C113.522 82.782 112.778 83.3074 111.72 83.3074C110.662 83.3074 109.918 82.782 109.481 81.7245L101.985 63.7325H105.426L111.686 78.8248L118.021 63.7325H121.414ZM135.601 69.4637V69.1499C135.601 67.6966 134.727 66.9734 132.986 66.9734H129.333C127.305 66.9734 126.295 67.7989 126.295 69.4569V73.3051L135.601 69.4637ZM139 71.34L126.289 76.5118V77.0917C126.289 78.122 126.576 78.852 127.142 79.2887C127.531 79.5958 128.2 79.7527 129.156 79.7527H139V83.0754H128.548C126.739 83.0754 125.415 82.7138 124.561 81.9974C123.476 81.0967 122.937 79.7049 122.937 77.8286V68.6791C122.937 65.3837 124.698 63.7393 128.228 63.7393H134.057C137.354 63.7393 139 65.4655 139 68.9111V71.34ZM45.6848 0V7.4847L59.7138 4.12784L61.6526 12.2198L45.6848 16.0406V20.148L59.9938 16.7228L61.9326 24.8148L45.6848 28.7107V32.818L66.9161 27.7282L68.8412 35.7655L93.3152 26.3568V0H45.6848Z" fill="#004D42"/>
<path d="M93.3153 26.3564L68.8276 35.7721L45.6848 41.2849V47.603H93.3153V26.3564Z" fill="#71BF44"/>
</g>
<defs>
<clipPath id="clip0_569_47">
<rect width="139" height="99" fill="white"/>
</clipPath>
</defs>
</svg>
