<svg width="140" height="107" viewBox="0 0 140 107" fill="none" xmlns="http://www.w3.org/2000/svg">
<g clip-path="url(#clip0_10_25)">
<path d="M44.2124 0V8.18345L59.403 4.50997L61.5038 13.3553L44.2124 17.5364V22.0257L59.7075 18.2791L61.8083 27.1237L44.2124 31.3784V35.868L67.2003 30.3091L69.1767 37.4006L95.7877 26.9236V0H44.2124Z" fill="#2B2A29"/>
<path fill-rule="evenodd" clip-rule="evenodd" d="M95.7877 26.9236L69.2716 37.2127L44.2125 43.239V50.1476H95.7877V26.9236Z" fill="url(#paint0_linear_10_25)"/>
<path d="M17.5542 57.9765V62.2296V62.3849H7.4038C6.42296 62.3849 5.70015 62.5946 5.23577 63.0137C5.13945 63.1003 5.05357 63.1971 4.97774 63.3041C4.72115 63.7148 4.59259 64.2486 4.59259 64.9055V68.964H17.5542V69.1075V73.3619V73.5046H4.59259V77.4851C4.59259 78.1476 4.72128 78.6867 4.97826 79.1024C5.05631 79.2143 5.14533 79.3153 5.24517 79.4054C5.71608 79.8308 6.4488 80.0438 7.44269 80.0438H17.5542V80.1993V84.4538V84.5848H17.1519H6.43692C5.46914 84.5848 4.60381 84.4651 3.84133 84.2257C3.06632 83.9825 2.39885 83.6147 1.83998 83.1228C1.22524 82.6013 0.763734 81.965 0.456627 81.2139C0.152 80.4698 -0.000183105 79.6183 -0.000183105 78.66V64.0029C-0.000183105 63.065 0.134119 62.2211 0.402201 61.4715C0.673808 60.7121 1.0818 60.0551 1.62515 59.5026C2.1698 58.9478 2.81951 58.5314 3.57272 58.2545C4.31485 57.9818 5.15394 57.8453 6.08896 57.8453H17.5541V57.9768L17.5542 57.9765ZM135.46 69.008C135.408 68.9411 135.348 68.8802 135.283 68.8253C134.921 68.5234 134.352 68.3724 133.574 68.3724H129.914C128.995 68.3724 128.319 68.5506 127.886 68.9068C127.477 69.2428 127.273 69.7645 127.273 70.4713V73.741L135.755 70.2176V70.1578C135.755 69.6859 135.657 69.3027 135.46 69.0083V69.008ZM139.749 72.735L127.273 77.8424V78.1543C127.273 78.6247 127.334 79.0203 127.458 79.3402C127.573 79.639 127.743 79.8763 127.969 80.0508L127.974 80.0541C128.121 80.1719 128.333 80.2628 128.61 80.3269C128.914 80.3973 129.292 80.4328 129.742 80.4328H140V84.5844H129.128C128.188 84.5844 127.368 84.4889 126.668 84.2981C125.945 84.1015 125.347 83.8019 124.874 83.3995C124.28 82.9012 123.835 82.2702 123.539 81.5068C123.48 81.3567 123.428 81.2014 123.381 81.0414L123.381 81.0407L123.38 81.0355L123.379 81.0341C123.194 80.4036 123.101 79.6926 123.101 78.9011V69.6776C123.101 69.1265 123.149 68.6183 123.243 68.1532C123.45 67.1133 123.888 66.2793 124.557 65.6513C125.518 64.7493 126.934 64.2982 128.805 64.2982H134.647C136.411 64.2982 137.745 64.7745 138.651 65.727C139.55 66.6732 140 68.0686 140 69.9121V72.6323L139.749 72.735H139.749ZM122.357 64.8555L114.891 82.9725C114.641 83.5772 114.298 84.0347 113.861 84.345C113.418 84.6598 112.889 84.8172 112.276 84.8172C111.663 84.8172 111.134 84.6598 110.691 84.345C110.254 84.0349 109.911 83.5777 109.662 82.974L101.925 64.2983H106.238L112.239 78.8546L118.314 64.2983H122.586L122.356 64.8555H122.357ZM100.408 84.5844H96.7175V64.2982H100.81V84.5844H100.408ZM101.313 59.5315C101.313 59.8819 101.247 60.2131 101.116 60.5242C100.986 60.8325 100.793 61.1145 100.538 61.3712L100.537 61.3728C100.28 61.6297 99.9993 61.8236 99.6946 61.9537C99.3851 62.0858 99.0556 62.1518 98.7062 62.1518C98.3568 62.1518 98.0296 62.0878 97.7251 61.9599C97.4221 61.8328 97.1451 61.6429 96.8945 61.3913C96.6441 61.1414 96.4557 60.8625 96.3285 60.5562C96.2013 60.2502 96.1377 59.9213 96.1377 59.5705C96.1377 59.2104 96.1987 58.8728 96.3207 58.5586C96.4423 58.2452 96.6243 57.959 96.8664 57.7005C97.1111 57.4389 97.3883 57.2418 97.6975 57.1098C98.007 56.9777 98.3435 56.9115 98.7062 56.9115C99.0673 56.9115 99.403 56.9751 99.7128 57.1021C100.023 57.229 100.304 57.4191 100.555 57.6712L100.557 57.6728C100.808 57.925 100.997 58.2077 101.123 58.5198C101.25 58.8312 101.313 59.1686 101.313 59.5314V59.5315ZM94.1418 68.3724H85.39C85.021 68.3724 84.7027 68.402 84.4363 68.4609C84.19 68.5148 83.992 68.5932 83.8421 68.6948C83.625 68.842 83.4649 69.0105 83.362 69.2C83.2606 69.3867 83.2099 69.6036 83.2099 69.8504V70.6338C83.2099 71.1813 83.379 71.5844 83.7169 71.8424C84.0886 72.1263 84.6754 72.2686 85.4765 72.2686H89.8095C90.4917 72.2686 91.1183 72.3861 91.6883 72.6207C92.2599 72.856 92.7689 73.2084 93.2141 73.6774C93.6558 74.1423 93.9882 74.6668 94.2112 75.25C94.4332 75.831 94.5442 76.4624 94.5442 77.1436V79.5929C94.5442 80.2494 94.4324 80.8738 94.2087 81.4651C93.9865 82.053 93.654 82.6047 93.2117 83.12C92.9487 83.4277 92.6744 83.6857 92.3906 83.8933C92.1024 84.1053 91.8015 84.2631 91.4895 84.3675L91.4768 84.3724C91.2352 84.4441 90.9404 84.4978 90.593 84.5326C90.2505 84.5672 89.8645 84.5842 89.4354 84.5842H79.1175V80.4325H88.5403C88.95 80.4325 89.2844 80.3781 89.5428 80.2696C89.7697 80.1742 89.938 80.0348 90.047 79.8519L90.0533 79.8425C90.1385 79.7082 90.2061 79.498 90.2549 79.2134C90.3083 78.9011 90.3354 78.5089 90.3354 78.0373C90.3354 77.4802 90.1976 77.0729 89.9227 76.8163C89.6397 76.5522 89.1891 76.4198 88.5715 76.4198H84.4713C83.734 76.4198 83.057 76.3191 82.4416 76.1175C81.8185 75.9135 81.2618 75.6071 80.7717 75.1989C80.2243 74.7597 79.8117 74.2434 79.534 73.6497C79.2568 73.056 79.1176 72.3931 79.1176 71.6613V69.0562C79.1176 68.2695 79.2765 67.552 79.5938 66.9052C79.9097 66.2614 80.3814 65.6932 81.0086 65.2016C81.4019 64.8933 81.8957 64.6641 82.4893 64.5146C83.0625 64.3702 83.7314 64.2978 84.4964 64.2978H94.5444V68.372H94.1421L94.1418 68.3724ZM76.9971 79.2815C76.9971 81.0305 76.5189 82.3539 75.5626 83.2509C74.6152 84.1398 73.218 84.5846 71.3725 84.5846H65.686C63.841 84.5846 62.4442 84.14 61.4966 83.2509C60.5406 82.3539 60.0624 81.0306 60.0624 79.2815V64.2984H64.1549V78.3095C64.1549 78.6623 64.2075 78.9781 64.3135 79.2556C64.4162 79.5253 64.5703 79.7623 64.7751 79.9659L64.7768 79.9674C64.9202 80.1109 65.145 80.2224 65.4504 80.3011C65.7905 80.3888 66.2254 80.433 66.755 80.433H70.3427C72.0506 80.433 72.9047 79.7382 72.9047 78.3488V64.2984H76.9972V79.2815H76.9971ZM57.1656 84.5845H53.475V57.4167H57.5678V84.5845H57.1656ZM51.116 84.5845H43.5722C41.6606 84.5845 40.2148 84.1162 39.2341 83.1799C38.2476 82.2382 37.7545 80.8479 37.7545 79.0091V69.6009C37.7545 67.8638 38.172 66.5474 39.0058 65.6524C39.8459 64.7493 41.0848 64.2983 42.7216 64.2983H51.4408V68.3726H44.086C43.6271 68.3726 43.2432 68.4136 42.9358 68.495C42.6575 68.5685 42.4457 68.6736 42.3008 68.8092C42.1604 68.9406 42.0517 69.1374 41.9754 69.3979C41.8898 69.6899 41.8473 70.0586 41.8473 70.5031V78.2243C41.8473 78.9788 42.0374 79.5337 42.4172 79.8885C42.8055 80.2512 43.4137 80.4324 44.2416 80.4324H51.5179V84.5845H51.1157H51.116ZM36.7142 84.5845H32.5206L28.0104 78.0827L23.5006 84.5845H18.5827L25.7063 74.149L19.0103 64.2984H23.8882L27.9745 70.2556L32.1346 64.2984H37.0059L30.3915 74.1484L37.4744 84.5845H36.7142Z" fill="#2B2A29"/>
<path fill-rule="evenodd" clip-rule="evenodd" d="M37.1555 106.764H34.561L33.1928 103.2H27.2445L25.8759 106.764H22.9846L28.2115 93.3297C28.3988 92.8557 28.6604 92.4982 28.9959 92.2569C29.3351 92.0122 29.743 91.8897 30.2186 91.8897C30.6943 91.8897 31.1023 92.0124 31.4415 92.2569C31.7768 92.4986 32.0387 92.856 32.2254 93.328L37.4524 106.764H37.1556H37.1555ZM32.3041 100.82L30.11 95.1891L28.1228 100.82H32.304H32.3041ZM51.0156 106.764H44.928C44.2442 106.764 43.6363 106.698 43.1059 106.567C42.5687 106.434 42.1099 106.233 41.7302 105.963C41.3402 105.687 41.0481 105.307 40.8543 104.824C40.6653 104.354 40.5707 103.787 40.5707 103.126V92.0401H43.2689V102.651C43.2689 102.992 43.3122 103.28 43.398 103.512C43.4789 103.73 43.598 103.899 43.7545 104.018C43.8703 104.106 44.0633 104.174 44.3332 104.222C44.6205 104.273 44.9924 104.298 45.4475 104.298H51.2204V106.764H51.0157H51.0156ZM70.586 106.764H68.1867V96.2689L64.5468 105.391C64.3391 105.912 64.0849 106.308 63.7855 106.577C63.4709 106.859 63.1106 107 62.7051 107C62.4653 107 62.245 106.956 62.0455 106.87C61.8454 106.783 61.6685 106.653 61.5153 106.482C61.4251 106.383 61.3323 106.246 61.2386 106.071C61.1487 105.904 61.0545 105.698 60.9574 105.455L57.2231 96.2515V106.764H54.6194V94.0029C54.6194 93.7012 54.6677 93.4237 54.7633 93.1705C54.8596 92.9152 55.0045 92.6873 55.1955 92.4896C55.3905 92.2884 55.6226 92.1375 55.8911 92.0376C56.1548 91.9389 56.4525 91.8896 56.7826 91.8896C57.8043 91.8896 58.5052 92.3844 58.8847 93.3734L62.683 103.107L66.5498 93.3674C66.7459 92.8814 67.0175 92.5142 67.3638 92.2666C67.7142 92.0154 68.1361 91.8896 68.6276 91.8896C68.9661 91.8896 69.2691 91.9412 69.5357 92.0435C69.808 92.1481 70.0403 92.3057 70.2305 92.5152C70.4172 92.7207 70.5583 92.956 70.6519 93.2209C70.7444 93.482 70.7909 93.7701 70.7909 94.085V106.764H70.5863L70.586 106.764ZM88.9291 106.764H86.3346L84.9665 103.2H79.0181L77.6495 106.764H74.7582L79.9852 93.3297C80.1723 92.8557 80.434 92.4982 80.7695 92.2569C81.1088 92.0122 81.5165 91.8897 81.9923 91.8897C82.468 91.8897 82.8759 92.0124 83.2152 92.2569C83.5504 92.4986 83.8123 92.856 83.9991 93.328L89.2261 106.764H88.9293H88.9291ZM84.0777 100.82L81.8836 95.1891L79.8963 100.82H84.0775H84.0777ZM102.789 106.764H96.7017C96.018 106.764 95.4101 106.698 94.8795 106.567C94.3423 106.434 93.8834 106.233 93.5039 105.963C93.1139 105.687 92.8218 105.307 92.628 104.824C92.439 104.354 92.3442 103.787 92.3442 103.126V92.0401H95.0423V102.651C95.0423 102.992 95.0856 103.28 95.1715 103.512C95.2526 103.73 95.3718 103.9 95.528 104.018C95.6435 104.106 95.8368 104.174 96.1067 104.222C96.3967 104.272 96.7685 104.298 97.2211 104.298H102.994V106.764H102.789H102.789ZM116.824 92.3484L111.569 100.801V106.764H108.87V100.8L103.449 92.0401H106.548L110.164 98.0571L113.917 92.0401H117.015L116.823 92.3484H116.824Z" fill="url(#paint1_linear_10_25)"/>
</g>
<defs>
<linearGradient id="paint0_linear_10_25" x1="55.8165" y1="34.5424" x2="91.8326" y2="48.6473" gradientUnits="userSpaceOnUse">
<stop stop-color="#BA823B"/>
<stop offset="0.109804" stop-color="#ECB147"/>
<stop offset="0.258824" stop-color="#FBC153"/>
<stop offset="0.380392" stop-color="#DEA137"/>
<stop offset="0.458824" stop-color="#E5AA3F"/>
<stop offset="0.768627" stop-color="#FCECB5"/>
<stop offset="1" stop-color="#BA823B"/>
</linearGradient>
<linearGradient id="paint1_linear_10_25" x1="57.0003" y1="80.621" x2="93.5198" y2="120.478" gradientUnits="userSpaceOnUse">
<stop stop-color="#BA823B"/>
<stop offset="0.239216" stop-color="#ECB147"/>
<stop offset="0.290196" stop-color="#FBC153"/>
<stop offset="0.380392" stop-color="#DEA137"/>
<stop offset="0.639216" stop-color="#E5AA3F"/>
<stop offset="1" stop-color="#BA823B"/>
</linearGradient>
<clipPath id="clip0_10_25">
<rect width="140" height="107" fill="white"/>
</clipPath>
</defs>
</svg>
