<svg width="90" height="69" viewBox="0 0 90 69" fill="none" xmlns="http://www.w3.org/2000/svg">
<path d="M28.4222 0V5.26077L38.1876 2.89925L39.5381 8.58552L28.4222 11.2734V14.1593L38.3834 11.7508L39.7339 17.4366L28.4222 20.1717V23.0579L43.2001 19.4843L44.4707 24.0432L61.5777 17.308V0H28.4222Z" fill="white"/>
<path fill-rule="evenodd" clip-rule="evenodd" d="M61.5777 17.3075L44.5317 23.9219L28.4223 27.7959V32.2371H61.5777V17.3075Z" fill="url(#paint0_linear_11_33)"/>
<path d="M11.2849 37.2706V40.0048V40.1046H4.75966C4.12912 40.1046 3.66446 40.2395 3.36593 40.5089C3.30401 40.5645 3.2488 40.6268 3.20005 40.6956C3.0351 40.9596 2.95245 41.3027 2.95245 41.725V44.334H11.2849V44.4263V47.1613V47.253H2.95245V49.8119C2.95245 50.2378 3.03518 50.5844 3.20039 50.8516C3.25056 50.9235 3.30779 50.9884 3.37197 51.0464C3.6747 51.3198 4.14573 51.4568 4.78466 51.4568H11.2849V51.5567V54.2918V54.3759H11.0263H4.1381C3.51595 54.3759 2.95967 54.299 2.46951 54.1451C1.97129 53.9888 1.5422 53.7524 1.18293 53.4361C0.787741 53.1009 0.491058 52.6918 0.293632 52.209C0.0978011 51.7306 -3.05176e-05 51.1832 -3.05176e-05 50.5672V41.1448C-3.05176e-05 40.5418 0.0863063 39.9993 0.258644 39.5175C0.433248 39.0292 0.695531 38.6069 1.04482 38.2518C1.39495 37.8951 1.81262 37.6274 2.29683 37.4494C2.77391 37.2741 3.31332 37.1863 3.91441 37.1863H11.2848V37.2709L11.2849 37.2706ZM87.0815 44.3624C87.0476 44.3194 87.0093 44.2801 86.9672 44.2449C86.735 44.0508 86.3687 43.9537 85.8687 43.9537H83.5157C82.925 43.9537 82.4904 44.0683 82.2122 44.2973C81.9494 44.5133 81.818 44.8487 81.818 45.303V47.405L87.2707 45.1399V45.1015C87.2707 44.7981 87.2077 44.5518 87.0815 44.3625V44.3624ZM89.8382 46.7583L81.818 50.0416V50.2421C81.818 50.5445 81.8576 50.7988 81.9369 51.0045C82.0108 51.1966 82.1207 51.3491 82.2657 51.4613L82.2687 51.4634C82.3632 51.5391 82.4994 51.5975 82.6775 51.6388C82.8733 51.684 83.1159 51.7068 83.4052 51.7068H89.9998V54.3757H83.0105C82.4067 54.3757 81.8794 54.3143 81.4293 54.1917C80.9643 54.0653 80.5802 53.8727 80.2763 53.614C79.8943 53.2936 79.6077 52.888 79.4175 52.3973C79.3801 52.3008 79.3464 52.2009 79.3165 52.0981L79.3164 52.0976L79.3154 52.0943L79.3152 52.0934C79.196 51.6881 79.1364 51.231 79.1364 50.7221V44.7928C79.1364 44.4385 79.1668 44.1118 79.2275 43.8128C79.3608 43.1443 79.6423 42.6081 80.0723 42.2045C80.6898 41.6246 81.6002 41.3346 82.8033 41.3346H86.5583C87.6924 41.3346 88.5504 41.6408 89.1325 42.2531C89.7107 42.8614 90 43.7584 90 44.9435V46.6923L89.8385 46.7583H89.8382ZM78.6576 41.6929L73.8581 53.3395C73.6979 53.7282 73.4772 54.0224 73.1962 54.2218C72.9112 54.4242 72.5713 54.5254 72.1773 54.5254C71.7831 54.5254 71.4433 54.4242 71.1582 54.2218C70.8776 54.0224 70.657 53.7286 70.4967 53.3404L65.5233 41.3347H68.2958L72.1533 50.6923L76.0588 41.3347H78.8052L78.6575 41.6929H78.6576ZM64.5477 54.3757H62.1754V41.3346H64.8063V54.3757H64.5477V54.3757ZM65.1297 38.2703C65.1297 38.4955 65.0874 38.7085 65.003 38.9085C64.9197 39.1066 64.7956 39.2879 64.6314 39.453L64.6305 39.454C64.4659 39.6192 64.2852 39.7438 64.0893 39.8274C63.8903 39.9124 63.6785 39.9548 63.4539 39.9548C63.2293 39.9548 63.0189 39.9136 62.8232 39.8314C62.6284 39.7497 62.4503 39.6276 62.2892 39.4659C62.1283 39.3052 62.0071 39.1259 61.9254 38.929C61.8436 38.7323 61.8027 38.5209 61.8027 38.2953C61.8027 38.0639 61.8419 37.8468 61.9204 37.6449C61.9986 37.4434 62.1155 37.2594 62.2712 37.0932C62.4285 36.9251 62.6067 36.7983 62.8055 36.7135C63.0044 36.6286 63.2207 36.586 63.4539 36.586C63.686 36.586 63.9018 36.6269 64.101 36.7085C64.3004 36.7901 64.4811 36.9123 64.6426 37.0744L64.6436 37.0754C64.8049 37.2376 64.9266 37.4193 65.0078 37.6199C65.089 37.8201 65.1297 38.037 65.1297 38.2702V38.2703ZM60.5197 43.9537H54.8935C54.6563 43.9537 54.4517 43.9728 54.2804 44.0106C54.1221 44.0453 53.9948 44.0956 53.8984 44.161C53.7589 44.2556 53.6559 44.364 53.5898 44.4857C53.5246 44.6058 53.492 44.7452 53.492 44.9039V45.4075C53.492 45.7595 53.6007 46.0186 53.8179 46.1845C54.0569 46.3669 54.4341 46.4584 54.9491 46.4584H57.7346C58.1731 46.4584 58.576 46.534 58.9424 46.6847C59.3099 46.836 59.6371 47.0626 59.9233 47.3641C60.2072 47.6629 60.4209 48.0001 60.5642 48.375C60.7069 48.7485 60.7783 49.1545 60.7783 49.5924V51.1669C60.7783 51.5889 60.7064 51.9903 60.5626 52.3704C60.4198 52.7484 60.206 53.1031 59.9217 53.4343C59.7526 53.6321 59.5763 53.798 59.3938 53.9315C59.2086 54.0677 59.0152 54.1692 58.8146 54.2363L58.8064 54.2394C58.6511 54.2855 58.4616 54.32 58.2382 54.3424C58.0181 54.3646 57.77 54.3756 57.4941 54.3756H50.8612V51.7066H56.9187C57.1821 51.7066 57.397 51.6716 57.5632 51.6019C57.709 51.5406 57.8172 51.451 57.8873 51.3334L57.8913 51.3273C57.9461 51.241 57.9896 51.1059 58.0209 50.9229C58.0552 50.7221 58.0727 50.47 58.0727 50.1669C58.0727 49.8087 57.9841 49.5469 57.8074 49.382C57.6254 49.2121 57.3358 49.1271 56.9387 49.1271H54.3029C53.8289 49.1271 53.3937 49.0623 52.9981 48.9327C52.5976 48.8016 52.2396 48.6046 51.9246 48.3422C51.5727 48.0598 51.3075 47.7279 51.1289 47.3463C50.9507 46.9646 50.8613 46.5384 50.8613 46.068V44.3933C50.8613 43.8876 50.9634 43.4264 51.1673 43.0105C51.3705 42.5967 51.6737 42.2314 52.0769 41.9153C52.3297 41.7172 52.6472 41.5699 53.0287 41.4737C53.3973 41.3809 53.8273 41.3343 54.319 41.3343H60.7784V43.9535H60.5198L60.5197 43.9537ZM49.4981 50.9667C49.4981 52.0911 49.1907 52.9418 48.5759 53.5184C47.9668 54.0899 47.0687 54.3759 45.8823 54.3759H42.2267C41.0406 54.3759 40.1427 54.09 39.5335 53.5184C38.9189 52.9418 38.6115 52.0912 38.6115 50.9667V41.3348H41.2424V50.3418C41.2424 50.5687 41.2762 50.7716 41.3443 50.9501C41.4104 51.1234 41.5094 51.2758 41.6411 51.4067L41.6422 51.4076C41.7344 51.4999 41.8789 51.5715 42.0752 51.6221C42.2939 51.6786 42.5734 51.707 42.9139 51.707H45.2203C46.3182 51.707 46.8673 51.2603 46.8673 50.3671V41.3348H49.4982V50.9667H49.4981ZM36.7493 54.3758H34.3768V36.9108H37.0079V54.3758H36.7493V54.3758ZM32.8602 54.3758H28.0107C26.7818 54.3758 25.8524 54.0747 25.2219 53.4728C24.5878 52.8675 24.2708 51.9737 24.2708 50.7916V44.7435C24.2708 43.6268 24.5392 42.7805 25.0752 42.2052C25.6152 41.6246 26.4117 41.3347 27.4639 41.3347H33.0691V43.9539H28.341C28.046 43.9539 27.7992 43.9802 27.6016 44.0326C27.4227 44.0798 27.2865 44.1473 27.1934 44.2345C27.1031 44.319 27.0332 44.4455 26.9842 44.613C26.9292 44.8007 26.9018 45.0377 26.9018 45.3235V50.2871C26.9018 50.7721 27.0241 51.1288 27.2682 51.3569C27.5178 51.5901 27.9088 51.7066 28.441 51.7066H33.1187V54.3758H32.8601H32.8602ZM23.602 54.3758H20.9062L18.0067 50.196L15.1076 54.3758H11.9461L16.5255 47.6672L12.221 41.3348H15.3568L17.9836 45.1644L20.658 41.3348H23.7895L19.5374 47.6669L24.0907 54.3758H23.602V54.3758Z" fill="white"/>
<path fill-rule="evenodd" clip-rule="evenodd" d="M23.8856 68.6338H22.2178L21.3382 66.3429H17.5143L16.6345 68.6338H14.7758L18.1359 59.9977C18.2563 59.6929 18.4245 59.4631 18.6402 59.308C18.8583 59.1507 19.1205 59.072 19.4262 59.072C19.732 59.072 19.9943 59.1508 20.2124 59.308C20.4279 59.4634 20.5963 59.6931 20.7163 59.9966L24.0765 68.6338H23.8857H23.8856ZM20.7669 64.813L19.3564 61.193L18.0789 64.813H20.7668H20.7669ZM32.7957 68.6338H28.8822C28.4427 68.6338 28.0518 68.5914 27.7108 68.5071C27.3655 68.4217 27.0706 68.2923 26.8265 68.119C26.5758 67.9418 26.388 67.6975 26.2634 67.3871C26.1419 67.0846 26.0811 66.7205 26.0811 66.2956V59.1686H27.8156V65.9896C27.8156 66.2093 27.8435 66.3941 27.8986 66.5431C27.9506 66.6834 28.0272 66.7922 28.1278 66.8686C28.2023 66.925 28.3264 66.9688 28.4999 66.9996C28.6845 67.0323 28.9236 67.0487 29.2162 67.0487H32.9273V68.6338H32.7957H32.7957ZM45.3766 68.6338H43.8342V61.8871L41.4943 67.7511C41.3607 68.0863 41.1973 68.3409 41.0049 68.5135C40.8026 68.6949 40.571 68.7857 40.3103 68.7857C40.1562 68.7857 40.0145 68.7577 39.8863 68.702C39.7576 68.6463 39.6439 68.5628 39.5454 68.4525C39.4875 68.3893 39.4278 68.301 39.3676 68.1886C39.3098 68.081 39.2492 67.9486 39.1868 67.7926L36.7862 61.8759V68.6338H35.1124V60.4304C35.1124 60.2365 35.1434 60.0581 35.2049 59.8953C35.2668 59.7312 35.3599 59.5846 35.4828 59.4576C35.6081 59.3282 35.7573 59.2312 35.9299 59.167C36.0994 59.1036 36.2908 59.0719 36.503 59.0719C37.1598 59.0719 37.6104 59.3899 37.8544 60.0258L40.2961 66.2829L42.7819 60.0219C42.908 59.7094 43.0826 59.4734 43.3052 59.3142C43.5304 59.1527 43.8016 59.0719 44.1176 59.0719C44.3352 59.0719 44.53 59.105 44.7014 59.1708C44.8764 59.2381 45.0258 59.3394 45.148 59.474C45.2681 59.6062 45.3588 59.7574 45.4189 59.9277C45.4784 60.0956 45.5083 60.2808 45.5083 60.4832V68.6337H45.3767L45.3766 68.6338ZM57.1685 68.6338H55.5006L54.6211 66.3429H50.7972L49.9173 68.6338H48.0587L51.4189 59.9977C51.5392 59.6929 51.7074 59.4631 51.9231 59.308C52.1412 59.1507 52.4033 59.072 52.7091 59.072C53.015 59.072 53.2772 59.1508 53.4953 59.308C53.7108 59.4634 53.8792 59.6931 53.9993 59.9966L57.3594 68.6338H57.1686H57.1685ZM54.0498 64.813L52.6393 61.193L51.3617 64.813H54.0497H54.0498ZM66.0786 68.6338H62.1652C61.7257 68.6338 61.3348 68.5914 60.9938 68.5071C60.6484 68.4216 60.3534 68.2923 60.1094 68.119C59.8587 67.9418 59.671 67.6975 59.5464 67.3871C59.4249 67.0846 59.364 66.7205 59.364 66.2956V59.1686H61.0984V65.9896C61.0984 66.2091 61.1263 66.3941 61.1815 66.5431C61.2336 66.6834 61.3103 66.7926 61.4106 66.8686C61.4849 66.925 61.6091 66.9688 61.7826 66.9996C61.9691 67.032 62.2081 67.0487 62.4991 67.0487H66.2102V68.6338H66.0787H66.0786ZM75.1006 59.3668L71.7224 64.8004V68.6338H69.9879V64.7998L66.5024 59.1686H68.495L70.8193 63.0367L73.232 59.1686H75.2237L75.1005 59.3668H75.1006Z" fill="url(#paint1_linear_11_33)"/>
<defs>
<linearGradient id="paint0_linear_11_33" x1="35.8821" y1="22.2053" x2="59.0352" y2="31.2727" gradientUnits="userSpaceOnUse">
<stop stop-color="#BA823B"/>
<stop offset="0.109804" stop-color="#ECB147"/>
<stop offset="0.258824" stop-color="#FBC153"/>
<stop offset="0.380392" stop-color="#DEA137"/>
<stop offset="0.458824" stop-color="#E5AA3F"/>
<stop offset="0.768627" stop-color="#FCECB5"/>
<stop offset="1" stop-color="#BA823B"/>
</linearGradient>
<linearGradient id="paint1_linear_11_33" x1="36.643" y1="51.8278" x2="60.1197" y2="77.4501" gradientUnits="userSpaceOnUse">
<stop stop-color="#BA823B"/>
<stop offset="0.239216" stop-color="#ECB147"/>
<stop offset="0.290196" stop-color="#FBC153"/>
<stop offset="0.380392" stop-color="#DEA137"/>
<stop offset="0.639216" stop-color="#E5AA3F"/>
<stop offset="1" stop-color="#BA823B"/>
</linearGradient>
</defs>
</svg>
