<svg width="23" height="23" viewBox="0 0 23 23" fill="none" xmlns="http://www.w3.org/2000/svg">
<g clip-path="url(#clip0_240_11)">
<path d="M10.6136 22.536C4.08654 13.0737 2.875 12.1025 2.875 8.625C2.875 3.86153 6.73653 0 11.5 0C16.2635 0 20.125 3.86153 20.125 8.625C20.125 12.1025 18.9135 13.0737 12.3864 22.536C11.9581 23.1547 11.0419 23.1547 10.6136 22.536ZM11.5 12.2188C13.4848 12.2188 15.0938 10.6098 15.0938 8.625C15.0938 6.64022 13.4848 5.03125 11.5 5.03125C9.51522 5.03125 7.90625 6.64022 7.90625 8.625C7.90625 10.6098 9.51522 12.2188 11.5 12.2188Z" fill="url(#paint0_linear_240_11)"/>
<path d="M10.6136 22.536C4.08654 13.0737 2.875 12.1025 2.875 8.625C2.875 3.86153 6.73653 0 11.5 0C16.2635 0 20.125 3.86153 20.125 8.625C20.125 12.1025 18.9135 13.0737 12.3864 22.536C11.9581 23.1547 11.0419 23.1547 10.6136 22.536ZM11.5 12.2188C13.4848 12.2188 15.0938 10.6098 15.0938 8.625C15.0938 6.64022 13.4848 5.03125 11.5 5.03125C9.51522 5.03125 7.90625 6.64022 7.90625 8.625C7.90625 10.6098 9.51522 12.2188 11.5 12.2188Z" fill="#ECB147"/>
</g>
<defs>
<linearGradient id="paint0_linear_240_11" x1="6.75612" y1="7.54529" x2="20.4109" y2="9.35128" gradientUnits="userSpaceOnUse">
<stop stop-color="#BA823B"/>
<stop offset="0.109804" stop-color="#ECB147"/>
<stop offset="0.258824" stop-color="#FBC153"/>
<stop offset="0.380392" stop-color="#DEA137"/>
<stop offset="0.458824" stop-color="#E5AA3F"/>
<stop offset="0.768627" stop-color="#FCECB5"/>
<stop offset="1" stop-color="#BA823B"/>
</linearGradient>
<clipPath id="clip0_240_11">
<rect width="23" height="23" fill="white"/>
</clipPath>
</defs>
</svg>
