<svg width="111" height="133" viewBox="0 0 111 133" fill="none" xmlns="http://www.w3.org/2000/svg">
<path d="M111 55.5C111 74.9672 100.977 92.0935 85.8102 102C77.0964 107.692 66.6846 111 55.5 111C44.3154 111 33.9036 107.692 25.1898 102C10.0229 92.0935 0 74.9672 0 55.5C0 24.8482 24.8482 0 55.5 0C86.1518 0 111 24.8482 111 55.5Z" fill="#333333"/>
<path d="M55.5 111C44.3154 111 33.9036 107.692 25.1898 102C25.1898 102 48 117 55.5 133C65 117.5 85.8102 102 85.8102 102C77.0964 107.692 66.6846 111 55.5 111Z" fill="#333333"/>
<path d="M34 34V41.0018L46.9595 37.8587L48.7517 45.4268L34 49.0042V52.8452L47.2192 49.6396L49.0115 57.207L34 60.8474V64.6887L53.6114 59.9324L55.2976 66L78 57.0359V34H34Z" fill="white"/>
<path fill-rule="evenodd" clip-rule="evenodd" d="M78 57L55.3785 65.8607L34 71.0505V77H78V57Z" fill="url(#paint0_linear_496_99)"/>
<defs>
<linearGradient id="paint0_linear_496_99" x1="43.8997" y1="63.5611" x2="74.7021" y2="75.5114" gradientUnits="userSpaceOnUse">
<stop stop-color="#BA823B"/>
<stop offset="0.109804" stop-color="#ECB147"/>
<stop offset="0.258824" stop-color="#FBC153"/>
<stop offset="0.380392" stop-color="#DEA137"/>
<stop offset="0.458824" stop-color="#E5AA3F"/>
<stop offset="0.768627" stop-color="#FCECB5"/>
<stop offset="1" stop-color="#BA823B"/>
</linearGradient>
</defs>
</svg>
